<svg id="visual" viewBox="0 0 900 600" width="900" height="600" xmlns="http://www.w3.org/2000/svg" xmlns:xlink="http://www.w3.org/1999/xlink" version="1.1"><rect x="0" y="0" width="900" height="600" fill="#001220"></rect><path d="M0 350L21.5 358.5C43 367 86 384 128.8 394.7C171.7 405.3 214.3 409.7 257.2 413.5C300 417.3 343 420.7 385.8 424.7C428.7 428.7 471.3 433.3 514.2 421.8C557 410.3 600 382.7 642.8 383.5C685.7 384.3 728.3 413.7 771.2 420.8C814 428 857 413 878.5 405.5L900 398L900 601L878.5 601C857 601 814 601 771.2 601C728.3 601 685.7 601 642.8 601C600 601 557 601 514.2 601C471.3 601 428.7 601 385.8 601C343 601 300 601 257.2 601C214.3 601 171.7 601 128.8 601C86 601 43 601 21.5 601L0 601Z" fill="#fa7268"></path><path d="M0 460L21.5 454.3C43 448.7 86 437.3 128.8 429.2C171.7 421 214.3 416 257.2 421C300 426 343 441 385.8 448.2C428.7 455.3 471.3 454.7 514.2 456C557 457.3 600 460.7 642.8 458.2C685.7 455.7 728.3 447.3 771.2 437.8C814 428.3 857 417.7 878.5 412.3L900 407L900 601L878.5 601C857 601 814 601 771.2 601C728.3 601 685.7 601 642.8 601C600 601 557 601 514.2 601C471.3 601 428.7 601 385.8 601C343 601 300 601 257.2 601C214.3 601 171.7 601 128.8 601C86 601 43 601 21.5 601L0 601Z" fill="#ef5f67"></path><path d="M0 491L21.5 488C43 485 86 479 128.8 471.7C171.7 464.3 214.3 455.7 257.2 454.7C300 453.7 343 460.3 385.8 459C428.7 457.7 471.3 448.3 514.2 447.7C557 447 600 455 642.8 462.3C685.7 469.7 728.3 476.3 771.2 477C814 477.7 857 472.3 878.5 469.7L900 467L900 601L878.5 601C857 601 814 601 771.2 601C728.3 601 685.7 601 642.8 601C600 601 557 601 514.2 601C471.3 601 428.7 601 385.8 601C343 601 300 601 257.2 601C214.3 601 171.7 601 128.8 601C86 601 43 601 21.5 601L0 601Z" fill="#e34c67"></path><path d="M0 520L21.5 521.3C43 522.7 86 525.3 128.8 527.8C171.7 530.3 214.3 532.7 257.2 529.2C300 525.7 343 516.3 385.8 515.8C428.7 515.3 471.3 523.7 514.2 522.5C557 521.3 600 510.7 642.8 504.2C685.7 497.7 728.3 495.3 771.2 499.3C814 503.3 857 513.7 878.5 518.8L900 524L900 601L878.5 601C857 601 814 601 771.2 601C728.3 601 685.7 601 642.8 601C600 601 557 601 514.2 601C471.3 601 428.7 601 385.8 601C343 601 300 601 257.2 601C214.3 601 171.7 601 128.8 601C86 601 43 601 21.5 601L0 601Z" fill="#d53867"></path><path d="M0 530L21.5 529.5C43 529 86 528 128.8 533.8C171.7 539.7 214.3 552.3 257.2 552.8C300 553.3 343 541.7 385.8 536.7C428.7 531.7 471.3 533.3 514.2 537.5C557 541.7 600 548.3 642.8 547.3C685.7 546.3 728.3 537.7 771.2 532.7C814 527.7 857 526.3 878.5 525.7L900 525L900 601L878.5 601C857 601 814 601 771.2 601C728.3 601 685.7 601 642.8 601C600 601 557 601 514.2 601C471.3 601 428.7 601 385.8 601C343 601 300 601 257.2 601C214.3 601 171.7 601 128.8 601C86 601 43 601 21.5 601L0 601Z" fill="#c62368"></path></svg>