<svg id="visual" viewBox="0 0 393 400" width="393" height="400" xmlns="http://www.w3.org/2000/svg" xmlns:xlink="http://www.w3.org/1999/xlink" version="1.1"><path d="M0 85L6 97.7C12 110.3 24 135.7 35.8 141C47.7 146.3 59.3 131.7 71.2 120.3C83 109 95 101 107 96.3C119 91.7 131 90.3 143 85.7C155 81 167 73 178.8 69.7C190.7 66.3 202.3 67.7 214.2 75.7C226 83.7 238 98.3 250 111.7C262 125 274 137 286 137C298 137 310 125 321.8 116.3C333.7 107.7 345.3 102.3 357.2 100.3C369 98.3 381 99.7 387 100.3L393 101L393 0L387 0C381 0 369 0 357.2 0C345.3 0 333.7 0 321.8 0C310 0 298 0 286 0C274 0 262 0 250 0C238 0 226 0 214.2 0C202.3 0 190.7 0 178.8 0C167 0 155 0 143 0C131 0 119 0 107 0C95 0 83 0 71.2 0C59.3 0 47.7 0 35.8 0C24 0 12 0 6 0L0 0Z" fill="#9900ff"></path><path d="M0 141L6 150.3C12 159.7 24 178.3 35.8 180.3C47.7 182.3 59.3 167.7 71.2 157C83 146.3 95 139.7 107 137.7C119 135.7 131 138.3 143 138.3C155 138.3 167 135.7 178.8 133.7C190.7 131.7 202.3 130.3 214.2 138.3C226 146.3 238 163.7 250 175C262 186.3 274 191.7 286 185C298 178.3 310 159.7 321.8 150.3C333.7 141 345.3 141 357.2 144.3C369 147.7 381 154.3 387 157.7L393 161L393 99L387 98.3C381 97.7 369 96.3 357.2 98.3C345.3 100.3 333.7 105.7 321.8 114.3C310 123 298 135 286 135C274 135 262 123 250 109.7C238 96.3 226 81.7 214.2 73.7C202.3 65.7 190.7 64.3 178.8 67.7C167 71 155 79 143 83.7C131 88.3 119 89.7 107 94.3C95 99 83 107 71.2 118.3C59.3 129.7 47.7 144.3 35.8 139C24 133.7 12 108.3 6 95.7L0 83Z" fill="#7c0ecc"></path><path d="M0 197L6 205C12 213 24 229 35.8 229C47.7 229 59.3 213 71.2 203C83 193 95 189 107 189C119 189 131 193 143 189.7C155 186.3 167 175.7 178.8 173C190.7 170.3 202.3 175.7 214.2 185C226 194.3 238 207.7 250 217.7C262 227.7 274 234.3 286 231.7C298 229 310 217 321.8 213.7C333.7 210.3 345.3 215.7 357.2 221C369 226.3 381 231.7 387 234.3L393 237L393 159L387 155.7C381 152.3 369 145.7 357.2 142.3C345.3 139 333.7 139 321.8 148.3C310 157.7 298 176.3 286 183C274 189.7 262 184.3 250 173C238 161.7 226 144.3 214.2 136.3C202.3 128.3 190.7 129.7 178.8 131.7C167 133.7 155 136.3 143 136.3C131 136.3 119 133.7 107 135.7C95 137.7 83 144.3 71.2 155C59.3 165.7 47.7 180.3 35.8 178.3C24 176.3 12 157.7 6 148.3L0 139Z" fill="#60129c"></path><path d="M0 337L6 334.3C12 331.7 24 326.3 35.8 329.7C47.7 333 59.3 345 71.2 353.7C83 362.3 95 367.7 107 363C119 358.3 131 343.7 143 335.7C155 327.7 167 326.3 178.8 333C190.7 339.7 202.3 354.3 214.2 356.3C226 358.3 238 347.7 250 341.7C262 335.7 274 334.3 286 335.7C298 337 310 341 321.8 347.7C333.7 354.3 345.3 363.7 357.2 365C369 366.3 381 359.7 387 356.3L393 353L393 235L387 232.3C381 229.7 369 224.3 357.2 219C345.3 213.7 333.7 208.3 321.8 211.7C310 215 298 227 286 229.7C274 232.3 262 225.7 250 215.7C238 205.7 226 192.3 214.2 183C202.3 173.7 190.7 168.3 178.8 171C167 173.7 155 184.3 143 187.7C131 191 119 187 107 187C95 187 83 191 71.2 201C59.3 211 47.7 227 35.8 227C24 227 12 211 6 203L0 195Z" fill="#45116e"></path><path d="M0 401L6 401C12 401 24 401 35.8 401C47.7 401 59.3 401 71.2 401C83 401 95 401 107 401C119 401 131 401 143 401C155 401 167 401 178.8 401C190.7 401 202.3 401 214.2 401C226 401 238 401 250 401C262 401 274 401 286 401C298 401 310 401 321.8 401C333.7 401 345.3 401 357.2 401C369 401 381 401 387 401L393 401L393 351L387 354.3C381 357.7 369 364.3 357.2 363C345.3 361.7 333.7 352.3 321.8 345.7C310 339 298 335 286 333.7C274 332.3 262 333.7 250 339.7C238 345.7 226 356.3 214.2 354.3C202.3 352.3 190.7 337.7 178.8 331C167 324.3 155 325.7 143 333.7C131 341.7 119 356.3 107 361C95 365.7 83 360.3 71.2 351.7C59.3 343 47.7 331 35.8 327.7C24 324.3 12 329.7 6 332.3L0 335Z" fill="#2c0e43"></path></svg>