<svg id="visual" viewBox="0 0 393 400" width="393" height="400" xmlns="http://www.w3.org/2000/svg" xmlns:xlink="http://www.w3.org/1999/xlink" version="1.1"><rect x="0" y="0" width="393" height="400" fill="#2C0E43"></rect><path d="M0 173L56 173L56 198L112 198L112 232L168 232L168 166L225 166L225 218L281 218L281 191L337 191L337 254L393 254L393 210L393 401L393 401L337 401L337 401L281 401L281 401L225 401L225 401L168 401L168 401L112 401L112 401L56 401L56 401L0 401Z" fill="#ff6b66"></path><path d="M0 234L56 234L56 288L112 288L112 280L168 280L168 244L225 244L225 300L281 300L281 271L337 271L337 234L393 234L393 304L393 401L393 401L337 401L337 401L281 401L281 401L225 401L225 401L168 401L168 401L112 401L112 401L56 401L56 401L0 401Z" fill="#c73581"></path><path d="M0 330L56 330L56 359L112 359L112 352L168 352L168 302L225 302L225 331L281 331L281 360L337 360L337 348L393 348L393 322L393 401L393 401L337 401L337 401L281 401L281 401L225 401L225 401L168 401L168 401L112 401L112 401L56 401L56 401L0 401Z" fill="#652c90"></path></svg>