<svg id="visual" viewBox="0 0 393 500" width="393" height="500" xmlns="http://www.w3.org/2000/svg" xmlns:xlink="http://www.w3.org/1999/xlink" version="1.1"><rect x="0" y="0" width="393" height="500" fill="#001220"></rect><path d="M0 344L9.3 347C18.7 350 37.3 356 56 359.2C74.7 362.3 93.3 362.7 112 355.7C130.7 348.7 149.3 334.3 168.2 329.5C187 324.7 206 329.3 224.8 324.8C243.7 320.3 262.3 306.7 281 308.5C299.7 310.3 318.3 327.7 337 340.7C355.7 353.7 374.3 362.3 383.7 366.7L393 371L393 501L383.7 501C374.3 501 355.7 501 337 501C318.3 501 299.7 501 281 501C262.3 501 243.7 501 224.8 501C206 501 187 501 168.2 501C149.3 501 130.7 501 112 501C93.3 501 74.7 501 56 501C37.3 501 18.7 501 9.3 501L0 501Z" fill="#9900ff"></path><path d="M0 355L9.3 357.2C18.7 359.3 37.3 363.7 56 362C74.7 360.3 93.3 352.7 112 346.5C130.7 340.3 149.3 335.7 168.2 334C187 332.3 206 333.7 224.8 334C243.7 334.3 262.3 333.7 281 336.3C299.7 339 318.3 345 337 348.8C355.7 352.7 374.3 354.3 383.7 355.2L393 356L393 501L383.7 501C374.3 501 355.7 501 337 501C318.3 501 299.7 501 281 501C262.3 501 243.7 501 224.8 501C206 501 187 501 168.2 501C149.3 501 130.7 501 112 501C93.3 501 74.7 501 56 501C37.3 501 18.7 501 9.3 501L0 501Z" fill="#8800e2"></path><path d="M0 422L9.3 422.2C18.7 422.3 37.3 422.7 56 415.3C74.7 408 93.3 393 112 391.7C130.7 390.3 149.3 402.7 168.2 405C187 407.3 206 399.7 224.8 392.2C243.7 384.7 262.3 377.3 281 374.8C299.7 372.3 318.3 374.7 337 376.3C355.7 378 374.3 379 383.7 379.5L393 380L393 501L383.7 501C374.3 501 355.7 501 337 501C318.3 501 299.7 501 281 501C262.3 501 243.7 501 224.8 501C206 501 187 501 168.2 501C149.3 501 130.7 501 112 501C93.3 501 74.7 501 56 501C37.3 501 18.7 501 9.3 501L0 501Z" fill="#7700c6"></path><path d="M0 423L9.3 426.2C18.7 429.3 37.3 435.7 56 433.5C74.7 431.3 93.3 420.7 112 419.3C130.7 418 149.3 426 168.2 431.7C187 437.3 206 440.7 224.8 442.7C243.7 444.7 262.3 445.3 281 443.7C299.7 442 318.3 438 337 435.5C355.7 433 374.3 432 383.7 431.5L393 431L393 501L383.7 501C374.3 501 355.7 501 337 501C318.3 501 299.7 501 281 501C262.3 501 243.7 501 224.8 501C206 501 187 501 168.2 501C149.3 501 130.7 501 112 501C93.3 501 74.7 501 56 501C37.3 501 18.7 501 9.3 501L0 501Z" fill="#6600ab"></path><path d="M0 467L9.3 464.8C18.7 462.7 37.3 458.3 56 455.8C74.7 453.3 93.3 452.7 112 456.3C130.7 460 149.3 468 168.2 465.7C187 463.3 206 450.7 224.8 445C243.7 439.3 262.3 440.7 281 443.3C299.7 446 318.3 450 337 449.5C355.7 449 374.3 444 383.7 441.5L393 439L393 501L383.7 501C374.3 501 355.7 501 337 501C318.3 501 299.7 501 281 501C262.3 501 243.7 501 224.8 501C206 501 187 501 168.2 501C149.3 501 130.7 501 112 501C93.3 501 74.7 501 56 501C37.3 501 18.7 501 9.3 501L0 501Z" fill="#560090"></path></svg>