<svg id="visual" viewBox="0 0 960 300" width="960" height="300" xmlns="http://www.w3.org/2000/svg" xmlns:xlink="http://www.w3.org/1999/xlink" version="1.1"><rect x="0" y="0" width="960" height="300" fill="#001220"></rect><path d="M0 206L22.8 207.8C45.7 209.7 91.3 213.3 137 215.2C182.7 217 228.3 217 274 212.8C319.7 208.7 365.3 200.3 411.2 197.5C457 194.7 503 197.3 548.8 194.5C594.7 191.7 640.3 183.3 686 184.5C731.7 185.7 777.3 196.3 823 204.2C868.7 212 914.3 217 937.2 219.5L960 222L960 301L937.2 301C914.3 301 868.7 301 823 301C777.3 301 731.7 301 686 301C640.3 301 594.7 301 548.8 301C503 301 457 301 411.2 301C365.3 301 319.7 301 274 301C228.3 301 182.7 301 137 301C91.3 301 45.7 301 22.8 301L0 301Z" fill="#9900ff"></path><path d="M0 213L22.8 214.2C45.7 215.3 91.3 217.7 137 216.7C182.7 215.7 228.3 211.3 274 207.7C319.7 204 365.3 201 411.2 199.8C457 198.7 503 199.3 548.8 199.5C594.7 199.7 640.3 199.3 686 201C731.7 202.7 777.3 206.3 823 208.7C868.7 211 914.3 212 937.2 212.5L960 213L960 301L937.2 301C914.3 301 868.7 301 823 301C777.3 301 731.7 301 686 301C640.3 301 594.7 301 548.8 301C503 301 457 301 411.2 301C365.3 301 319.7 301 274 301C228.3 301 182.7 301 137 301C91.3 301 45.7 301 22.8 301L0 301Z" fill="#8800e2"></path><path d="M0 253L22.8 253.2C45.7 253.3 91.3 253.7 137 249.2C182.7 244.7 228.3 235.3 274 234.3C319.7 233.3 365.3 240.7 411.2 242.2C457 243.7 503 239.3 548.8 235C594.7 230.7 640.3 226.3 686 224.8C731.7 223.3 777.3 224.7 823 225.7C868.7 226.7 914.3 227.3 937.2 227.7L960 228L960 301L937.2 301C914.3 301 868.7 301 823 301C777.3 301 731.7 301 686 301C640.3 301 594.7 301 548.8 301C503 301 457 301 411.2 301C365.3 301 319.7 301 274 301C228.3 301 182.7 301 137 301C91.3 301 45.7 301 22.8 301L0 301Z" fill="#7700c6"></path><path d="M0 253L22.8 255C45.7 257 91.3 261 137 259.8C182.7 258.7 228.3 252.3 274 251.5C319.7 250.7 365.3 255.3 411.2 258.7C457 262 503 264 548.8 265.2C594.7 266.3 640.3 266.7 686 265.7C731.7 264.7 777.3 262.3 823 260.8C868.7 259.3 914.3 258.7 937.2 258.3L960 258L960 301L937.2 301C914.3 301 868.7 301 823 301C777.3 301 731.7 301 686 301C640.3 301 594.7 301 548.8 301C503 301 457 301 411.2 301C365.3 301 319.7 301 274 301C228.3 301 182.7 301 137 301C91.3 301 45.7 301 22.8 301L0 301Z" fill="#6600ab"></path><path d="M0 280L22.8 278.7C45.7 277.3 91.3 274.7 137 273.2C182.7 271.7 228.3 271.3 274 273.5C319.7 275.7 365.3 280.3 411.2 279C457 277.7 503 270.3 548.8 267C594.7 263.7 640.3 264.3 686 265.8C731.7 267.3 777.3 269.7 823 269.3C868.7 269 914.3 266 937.2 264.5L960 263L960 301L937.2 301C914.3 301 868.7 301 823 301C777.3 301 731.7 301 686 301C640.3 301 594.7 301 548.8 301C503 301 457 301 411.2 301C365.3 301 319.7 301 274 301C228.3 301 182.7 301 137 301C91.3 301 45.7 301 22.8 301L0 301Z" fill="#560090"></path></svg>