<svg id="visual" viewBox="0 0 393 200" width="393" height="200" xmlns="http://www.w3.org/2000/svg" xmlns:xlink="http://www.w3.org/1999/xlink" version="1.1"><rect x="0" y="0" width="393" height="200" fill="#560090"></rect><path d="M0 75L9.3 79.7C18.7 84.3 37.3 93.7 56 90.7C74.7 87.7 93.3 72.3 112 70.8C130.7 69.3 149.3 81.7 168.2 98.2C187 114.7 206 135.3 224.8 139C243.7 142.7 262.3 129.3 281 127.8C299.7 126.3 318.3 136.7 337 125.7C355.7 114.7 374.3 82.3 383.7 66.2L393 50L393 201L383.7 201C374.3 201 355.7 201 337 201C318.3 201 299.7 201 281 201C262.3 201 243.7 201 224.8 201C206 201 187 201 168.2 201C149.3 201 130.7 201 112 201C93.3 201 74.7 201 56 201C37.3 201 18.7 201 9.3 201L0 201Z" fill="#9900FF" stroke-linecap="round" stroke-linejoin="miter"></path></svg>