<svg id="visual" viewBox="0 0 393 400" width="393" height="400" xmlns="http://www.w3.org/2000/svg" xmlns:xlink="http://www.w3.org/1999/xlink" version="1.1"><rect x="0" y="0" width="393" height="400" fill="#001220"></rect><path d="M0 179L7.3 186C14.7 193 29.3 207 43.8 202.5C58.3 198 72.7 175 87.2 174.5C101.7 174 116.3 196 131 194.7C145.7 193.3 160.3 168.7 174.8 154C189.3 139.3 203.7 134.7 218.2 136.8C232.7 139 247.3 148 262 156.5C276.7 165 291.3 173 305.8 169.8C320.3 166.7 334.7 152.3 349.2 154.5C363.7 156.7 378.3 175.3 385.7 184.7L393 194L393 401L385.7 401C378.3 401 363.7 401 349.2 401C334.7 401 320.3 401 305.8 401C291.3 401 276.7 401 262 401C247.3 401 232.7 401 218.2 401C203.7 401 189.3 401 174.8 401C160.3 401 145.7 401 131 401C116.3 401 101.7 401 87.2 401C72.7 401 58.3 401 43.8 401C29.3 401 14.7 401 7.3 401L0 401Z" fill="#9900ff"></path><path d="M0 180L7.3 183.2C14.7 186.3 29.3 192.7 43.8 198.3C58.3 204 72.7 209 87.2 211C101.7 213 116.3 212 131 207.7C145.7 203.3 160.3 195.7 174.8 193C189.3 190.3 203.7 192.7 218.2 196.3C232.7 200 247.3 205 262 205.2C276.7 205.3 291.3 200.7 305.8 201.5C320.3 202.3 334.7 208.7 349.2 205.3C363.7 202 378.3 189 385.7 182.5L393 176L393 401L385.7 401C378.3 401 363.7 401 349.2 401C334.7 401 320.3 401 305.8 401C291.3 401 276.7 401 262 401C247.3 401 232.7 401 218.2 401C203.7 401 189.3 401 174.8 401C160.3 401 145.7 401 131 401C116.3 401 101.7 401 87.2 401C72.7 401 58.3 401 43.8 401C29.3 401 14.7 401 7.3 401L0 401Z" fill="#8e00ec"></path><path d="M0 273L7.3 273.2C14.7 273.3 29.3 273.7 43.8 274.2C58.3 274.7 72.7 275.3 87.2 265.5C101.7 255.7 116.3 235.3 131 230.3C145.7 225.3 160.3 235.7 174.8 241.2C189.3 246.7 203.7 247.3 218.2 243.8C232.7 240.3 247.3 232.7 262 235.7C276.7 238.7 291.3 252.3 305.8 261.3C320.3 270.3 334.7 274.7 349.2 272.7C363.7 270.7 378.3 262.3 385.7 258.2L393 254L393 401L385.7 401C378.3 401 363.7 401 349.2 401C334.7 401 320.3 401 305.8 401C291.3 401 276.7 401 262 401C247.3 401 232.7 401 218.2 401C203.7 401 189.3 401 174.8 401C160.3 401 145.7 401 131 401C116.3 401 101.7 401 87.2 401C72.7 401 58.3 401 43.8 401C29.3 401 14.7 401 7.3 401L0 401Z" fill="#8200d9"></path><path d="M0 238L7.3 241.7C14.7 245.3 29.3 252.7 43.8 252.3C58.3 252 72.7 244 87.2 245.8C101.7 247.7 116.3 259.3 131 265.7C145.7 272 160.3 273 174.8 273.2C189.3 273.3 203.7 272.7 218.2 271.3C232.7 270 247.3 268 262 262.8C276.7 257.7 291.3 249.3 305.8 246C320.3 242.7 334.7 244.3 349.2 253.8C363.7 263.3 378.3 280.7 385.7 289.3L393 298L393 401L385.7 401C378.3 401 363.7 401 349.2 401C334.7 401 320.3 401 305.8 401C291.3 401 276.7 401 262 401C247.3 401 232.7 401 218.2 401C203.7 401 189.3 401 174.8 401C160.3 401 145.7 401 131 401C116.3 401 101.7 401 87.2 401C72.7 401 58.3 401 43.8 401C29.3 401 14.7 401 7.3 401L0 401Z" fill="#7700c6"></path><path d="M0 319L7.3 318.7C14.7 318.3 29.3 317.7 43.8 309.8C58.3 302 72.7 287 87.2 279.7C101.7 272.3 116.3 272.7 131 280.5C145.7 288.3 160.3 303.7 174.8 310.8C189.3 318 203.7 317 218.2 310.5C232.7 304 247.3 292 262 294C276.7 296 291.3 312 305.8 313C320.3 314 334.7 300 349.2 291.2C363.7 282.3 378.3 278.7 385.7 276.8L393 275L393 401L385.7 401C378.3 401 363.7 401 349.2 401C334.7 401 320.3 401 305.8 401C291.3 401 276.7 401 262 401C247.3 401 232.7 401 218.2 401C203.7 401 189.3 401 174.8 401C160.3 401 145.7 401 131 401C116.3 401 101.7 401 87.2 401C72.7 401 58.3 401 43.8 401C29.3 401 14.7 401 7.3 401L0 401Z" fill="#6c00b4"></path><path d="M0 306L7.3 307.2C14.7 308.3 29.3 310.7 43.8 316.8C58.3 323 72.7 333 87.2 337.7C101.7 342.3 116.3 341.7 131 339.3C145.7 337 160.3 333 174.8 331.5C189.3 330 203.7 331 218.2 327.3C232.7 323.7 247.3 315.3 262 313C276.7 310.7 291.3 314.3 305.8 320.7C320.3 327 334.7 336 349.2 337.7C363.7 339.3 378.3 333.7 385.7 330.8L393 328L393 401L385.7 401C378.3 401 363.7 401 349.2 401C334.7 401 320.3 401 305.8 401C291.3 401 276.7 401 262 401C247.3 401 232.7 401 218.2 401C203.7 401 189.3 401 174.8 401C160.3 401 145.7 401 131 401C116.3 401 101.7 401 87.2 401C72.7 401 58.3 401 43.8 401C29.3 401 14.7 401 7.3 401L0 401Z" fill="#6100a2"></path><path d="M0 347L7.3 346.7C14.7 346.3 29.3 345.7 43.8 344.5C58.3 343.3 72.7 341.7 87.2 343.5C101.7 345.3 116.3 350.7 131 350.8C145.7 351 160.3 346 174.8 343.7C189.3 341.3 203.7 341.7 218.2 347.5C232.7 353.3 247.3 364.7 262 369C276.7 373.3 291.3 370.7 305.8 368.8C320.3 367 334.7 366 349.2 365.3C363.7 364.7 378.3 364.3 385.7 364.2L393 364L393 401L385.7 401C378.3 401 363.7 401 349.2 401C334.7 401 320.3 401 305.8 401C291.3 401 276.7 401 262 401C247.3 401 232.7 401 218.2 401C203.7 401 189.3 401 174.8 401C160.3 401 145.7 401 131 401C116.3 401 101.7 401 87.2 401C72.7 401 58.3 401 43.8 401C29.3 401 14.7 401 7.3 401L0 401Z" fill="#560090"></path></svg>